# xmcd CD database file
#
# Track frame offsets:
#	150
#	16740
#	37852
#	59137
#	72795
#	90570
#	105845
#	148505
#	164950
#	186717
#	207575
#
# Disc length: 3027 seconds
#
# Revision: 1
# Processed by: cddbd v1.5.1PL0 Copyright (c) Steve Scherf et al.
# Submitted via: CDex 1.51
#
DISCID=9e0bd10b
DTITLE=Harry Lucas and the Lowdown - Fistfull of Blues
DYEAR=1997
DGENRE=Blues
TTITLE0=Hey Everybody
TTITLE1=Weepin Willow
TTITLE2=Mr Blues
TTITLE3=The Loner
TTITLE4=Bag Lady
TTITLE5=Steppin Down
TTITLE6=The Stew
TTITLE7=Gone Fishin'
TTITLE8=Sign of the Times
TTITLE9=Desert Night
TTITLE10=Fistfull of Blues
EXTD=YEAR: 1997
EXTT0=
EXTT1=
EXTT2=
EXTT3=
EXTT4=
EXTT5=
EXTT6=
EXTT7=
EXTT8=
EXTT9=
EXTT10=
PLAYORDER=
